HIERARCHY
ROOT Hips
{
  OFFSET 19.4283 94.4813 -0.206219
  CHANNELS 6 Xposition Yposition Zposition Zrotation Xrotation Yrotation
  JOINT ToSpine
  {
    OFFSET -2.69724 7.43032 -0.144315
    CHANNELS 3 Zrotation Xrotation Yrotation
    JOINT Spine
    {
      OFFSET -0.0310711 10.7595 1.96963
      CHANNELS 3 Zrotation Xrotation Yrotation
      JOINT Spine1
      {
        OFFSET 13.1342 3.43533 0.764692
        CHANNELS 3 Zrotation Xrotation Yrotation
        JOINT Neck
        {
          OFFSET 29.8703 7.82586 -0.130764
          CHANNELS 3 Zrotation Xrotation Yrotation
          JOINT Head
          {
            OFFSET 9.52751 0.295786 -0.907742
            CHANNELS 3 Zrotation Xrotation Yrotation
            End Site
            {
              OFFSET 16.4037 0.713936 2.7358
            }
          }
        }
        JOINT LeftShoulder
        {
          OFFSET 27.5574 4.95586 2.47156
          CHANNELS 3 Zrotation Xrotation Yrotation
          JOINT LeftArm
          {
            OFFSET 1.20734 -0.998971 20.1238
            CHANNELS 3 Zrotation Xrotation Yrotation
            JOINT LeftForeArm
            {
              OFFSET 26.8049 -0.0536703 -0.155908
              CHANNELS 3 Zrotation Xrotation Yrotation
              JOINT LeftHand
              {
                OFFSET 26.6817 0 0.320147
                CHANNELS 3 Zrotation Xrotation Yrotation
                End Site
                {
                  OFFSET 18.6119 0 0.382219
                }
              }
            }
          }
        }
        JOINT RightShoulder
        {
          OFFSET 27.5927 4.71444 -2.65209
          CHANNELS 3 Zrotation Xrotation Yrotation
          JOINT RightArm
          {
            OFFSET 2.83739 -1.17114 -18.7564
            CHANNELS 3 Zrotation Xrotation Yrotation
            JOINT RightForeArm
            {
              OFFSET 28.839 -0.0548439 1.22491
              CHANNELS 3 Zrotation Xrotation Yrotation
              JOINT RightHand
              {
                OFFSET 26.5114 0 -0.101894
                CHANNELS 3 Zrotation Xrotation Yrotation
                End Site
                {
                  OFFSET 18.2168 0 0
                }
              }
            }
          }
        }
      }
    }
  }
  JOINT LeftUpLeg
  {
    OFFSET -4.76168 -1.9167 -10.2353
    CHANNELS 3 Zrotation Xrotation Yrotation
    JOINT LeftLeg
    {
      OFFSET 2.55951 -42.0585 -8.02213
      CHANNELS 3 Zrotation Xrotation Yrotation
      JOINT LeftFoot
      {
        OFFSET 3.16357 -42.5282 -3.95426
        CHANNELS 3 Zrotation Xrotation Yrotation
        JOINT LeftToeBase
        {
          OFFSET 0.346054 -6.02161 12.8035
          CHANNELS 3 Zrotation Xrotation Yrotation
          End Site
          {
            OFFSET 0.134235 -1.35082 5.13018
          }
        }
      }
    }
  }
  JOINT RightUpLeg
  {
    OFFSET -4.94151 -1.41743 10.6446
    CHANNELS 3 Zrotation Xrotation Yrotation
    JOINT RightLeg
    {
      OFFSET -2.56294 -42.0364 -7.94377
      CHANNELS 3 Zrotation Xrotation Yrotation
      JOINT RightFoot
      {
        OFFSET -3.0952 -42.555 -4.02241
        CHANNELS 3 Zrotation Xrotation Yrotation
        JOINT RightToeBase
        {
          OFFSET -0.0828122 -6.13587 12.8035
          CHANNELS 3 Zrotation Xrotation Yrotation
          End Site
          {
            OFFSET -0.131328 -1.35082 5.13018
          }
        }
      }
    }
  }
}
MOTION
Frames:	15
Frame Time:	0.0333333
24.8486 88.8304 6.21771 90.3115 -14.208 1.80805 -70.1915 0 88.8779 54.1073 65.6268 34.8864 0.859972 19.4454 5.71657 -130.51 45.7979 135.743 -76.7339 75.2586 92.2181 -0.430807 -18.1823 -28.6822 -51.9999 28.4161 -143.292 18.842 -6.0872 -106.459 0.420957 0.000576259 0.35866 -1.56755 7.75638 34.4742 -131.658 4.37642 75.269 20.1826 -8.23546 68.6059 0.58676 0.000330695 0.0646655 -63.3864 11.7011 84.8862 -5.57917 54.6805 -13.8993 3.50988 -23.4397 -1.70779 4.27608 -12.4552 21.8711 -64.0995 -15.0691 78.4567 2.2811 51.4313 -4.39385 -5.10023 -18.8188 1.44921 2.40212 -11.8486 -16.348 
24.7575 89.2858 6.24345 89.2029 -14.5649 1.34373 -70.1915 0 88.8779 54.6857 65.7674 33.4894 1.23846 19.001 6.47007 -131.792 45.9757 137.296 -78.1467 76.1063 92.8369 -0.319312 -17.7426 -28.2633 -52.3437 28.3403 -144.76 19.463 -5.8497 -105.297 0.420957 0.000576259 0.35866 -1.56975 7.5631 35.0727 -132.496 4.61656 76.3648 19.4731 -7.42767 69.8115 0.58676 0.000330695 0.0646655 -62.979 11.7594 85.5302 -5.2465 53.1861 -13.9428 3.0462 -22.2128 -1.6758 4.44674 -12.488 20.0134 -63.4016 -15.327 78.0167 2.01957 50.153 -4.84156 -5.21479 -17.9072 1.41207 2.17058 -11.9943 -12.3745 
24.4635 89.9135 6.2547 87.5153 -14.8129 0.553338 -70.1915 0 88.8779 54.3689 65.6639 31.8995 1.67228 18.1733 7.99503 -132.344 45.693 139.04 -80.2912 77.5396 95.1393 -0.213009 -17.3711 -27.6914 -52.8378 28.5835 -145.853 20.6713 -5.80444 -104.229 0.420957 0.000576259 0.35866 -1.41363 6.81896 35.2217 -133.131 3.42703 77.7185 18.2544 -6.29953 71.4914 0.58676 0.000330695 0.0646655 -62.0656 11.6953 86.3348 -4.85781 51.1774 -14.0667 2.34137 -20.7976 -1.63664 4.48666 -12.3483 18.251 -62.0772 -15.1947 78.3891 2.02113 48.618 -3.78551 -4.2853 -16.8275 1.39362 2.293 -12.0736 -14.5468 
24.0568 90.6254 6.13764 85.6897 -15.1504 -0.0937845 -70.1915 0 88.8779 56.0915 65.8646 28.75 1.50484 17.3 9.26912 -132.278 45.3026 140.928 -82.8382 78.9688 98.2425 -0.121149 -17.0701 -27.0752 -53.419 28.8042 -146.761 21.0796 -5.70173 -103.681 0.420957 0.000576259 0.35866 -1.4149 6.43491 36.6039 -133.866 3.47971 79.4893 17.2948 -5.23466 73.5554 0.58676 0.000330695 0.0646655 -61.1498 11.5669 86.8357 -4.4238 48.8184 -13.7893 1.68448 -19.3491 -1.57488 4.4857 -12.1756 16.7079 -60.746 -14.9183 78.5598 1.8587 46.5725 -3.41206 -3.42484 -15.5364 1.34441 2.29028 -11.4324 -14.38 
23.5556 91.4282 5.99889 83.6204 -15.7471 -0.755668 -70.1915 0 88.8779 57.2734 66.1752 26.7819 1.95025 16.8551 10.0627 -132.701 44.96 143.033 -86.7522 80.3745 102.604 -0.0821072 -16.936 -26.8328 -54.6575 28.9787 -147.616 21.6416 -5.57831 -102.998 0.420957 0.000576259 0.35866 -1.47138 6.31418 37.9401 -134.264 4.37999 80.74 16.2412 -4.29726 75.455 0.58676 0.000330695 0.0646655 -60.0536 11.5138 87.3944 -3.96709 46.3515 -13.025 1.14195 -17.8183 -1.48722 4.33934 -11.7122 14.7582 -59.2365 -14.6541 78.461 1.69711 44.1716 -2.84691 -2.28768 -14.0121 1.25968 2.2044 -10.5303 -13.2025 
22.8776 92.2243 5.76308 81.5948 -16.525 -1.19931 -70.1915 0 88.8779 60.432 66.7265 23.7177 2.27874 16.6354 9.90581 -132.734 44.6847 145.162 -92.464 83.0919 108.776 0.0317945 -16.5451 -26.0011 -55.5506 29.2471 -149.163 22.3248 -5.356 -102.044 0.420957 0.000576259 0.35866 -1.43159 6.07472 38.3006 -134.954 3.60608 80.6893 17.2124 -3.65446 78.2329 0.58676 0.000330695 0.0646655 -58.8799 11.9008 88.1465 -3.65763 44.0042 -12.8633 0.708386 -16.0049 -1.36065 4.331 -11.562 13.6616 -57.617 -13.8971 78.6502 1.55647 41.7671 -2.61365 -1.76404 -11.8516 1.12131 2.17651 -10.4832 -12.6468 
22.1373 93.0109 5.46877 79.6119 -16.9896 -1.88863 -70.1915 0 88.8779 63.0864 67.183 20.136 2.76531 16.1485 10.5969 -133.929 44.6152 148.2 -104.994 85.0992 121.282 0.0837362 -16.2656 -25.8751 -56.8947 29.5225 -149.89 24.8136 -5.39309 -100.743 0.420957 0.000576259 0.35866 -1.21614 5.5276 36.8674 -135.551 0.938575 80.0988 17.9121 -3.01091 80.6116 0.58676 0.000330695 0.0646655 -57.6612 12.0712 89.0069 -3.37355 41.5944 -12.695 -0.253638 -14.3745 -1.23514 4.14634 -11.013 11.8335 -56.0699 -13.8906 77.9925 1.09361 39.2511 -4.41194 -2.38601 -9.36805 0.988236 1.55414 -10.0633 -4.5682 
21.3594 93.7774 5.14945 77.5994 -17.4374 -2.69154 -70.1915 0 88.8779 66.0136 67.6262 16.3591 3.04702 15.7406 11.2018 -135.421 44.8239 152.049 -136.19 87.0898 151.822 0.122596 -15.9974 -25.9618 -58.4724 29.826 -150.199 24.0827 -4.99332 -100.273 0.420957 0.000576259 0.35866 -1.23151 5.89429 35.6699 -136.303 -0.722288 78.7207 17.3868 -2.12137 83.0859 0.58676 0.000330695 0.0646655 -56.4703 12.2269 90.0149 -3.14682 39.0754 -12.8165 -1.20228 -12.2781 -1.04013 4.33584 -11.0364 9.84952 -54.5187 -13.8773 77.4949 0.946703 36.6774 -4.39833 -2.83144 -6.78965 0.877176 1.36986 -10.5609 -1.33895 
20.6146 94.4796 4.80853 75.338 -17.734 -3.65458 -70.1915 0 88.8779 66.9216 68.0103 14.8286 3.42846 16.0267 10.4839 -131.298 42.9404 148.641 -139.234 86.4008 158.335 0.151667 -16.2241 -24.7597 -60.26 29.0714 -151.024 22.0167 -4.39882 -99.9881 0.420957 0.000576259 0.35866 -1.11046 4.94268 37.5838 -136.712 -0.374989 79.5588 15.6768 -1.24643 85.3985 0.58676 0.000330695 0.0646655 -54.9877 12.2095 90.7997 -2.96587 36.6814 -12.9593 -2.15199 -10.1791 -0.81061 4.53006 -11.172 8.47661 -52.8492 -14.1871 76.3664 0.883293 34.0468 -4.28218 -3.81317 -4.32778 0.829552 1.12135 -10.6098 2.32749 
19.9165 95.0411 4.34025 72.8216 -18.4196 -4.71829 -70.1915 0 88.8779 68.9001 68.4757 13.305 3.02567 16.6262 9.02163 -127.827 40.9679 145.516 -132.242 85.227 154.2 0.132758 -16.6078 -24.1158 -61.6588 28.885 -151.158 22.8735 -3.86682 -98.3575 0.420957 0.000576259 0.35866 -1.12803 4.62364 39.598 -137.35 0.784923 80.0921 14.5596 -0.597252 87.4029 0.58676 0.000330695 0.0646655 -53.2154 12.3862 92.0122 -2.71935 34.7153 -13.271 -3.51204 -9.23801 -0.65196 4.23519 -10.5076 7.54568 -50.7029 -14.3605 75.8989 1.19396 31.7042 -3.91844 -2.7807 -2.68006 0.646731 0.667754 -8.90067 4.74364 
19.2396 95.4852 3.84405 70.7212 -19.102 -5.63296 -70.1915 0 88.8779 70.7332 68.5153 11.3701 3.28907 16.4023 9.06531 -129.368 41.4345 149.567 -157.228 85.5637 178.619 0.179943 -16.1411 -24.4856 -63.1036 28.9195 -150.451 22.4155 -3.87607 -98.5774 0.420957 0.000576259 0.35866 -1.2631 5.33117 38.6509 -137.812 -0.470894 78.9159 13.8634 -0.0321607 89.8358 0.58676 0.000330695 0.0646655 -51.7568 12.599 93.5282 -2.19962 33.1131 -14.2185 -4.01451 -7.85688 -0.466405 4.27442 -10.4262 6.61443 -48.9711 -14.3747 75.9575 1.75483 29.5205 -4.32142 -2.03295 -1.05682 0.479775 0.194782 -7.53143 7.10702 
18.6214 95.8067 3.36012 68.928 -19.9601 -6.46572 -70.1915 0 88.8779 74.0136 69.0466 8.46224 2.65267 16.8613 8.17312 -127.393 40.9391 149.812 -169.693 85.4634 -167.193 0.189488 -16.211 -24.125 -63.8151 29.2584 -150.086 22.0019 -3.68979 -98.3225 0.420957 0.000576259 0.35866 -1.23481 5.20679 38.7132 -138.239 -1.13178 78.2938 13.7597 0.567002 91.9799 0.58676 0.000330695 0.0646655 -50.5439 12.9706 94.9623 -1.75892 32.0336 -15.3808 -5.12794 -7.14096 -0.310396 4.05971 -9.89066 5.77834 -47.8387 -13.9037 76.6442 2.40669 26.782 -4.68342 -3.18398 1.11833 0.497944 0.474625 -8.97634 7.03127 
18.0685 95.9906 2.95008 67.4768 -21.0199 -7.26572 -70.1915 0 88.8779 75.7717 69.645 6.51895 2.8215 17.3742 7.95412 -126.997 40.6692 150.679 -177.521 85.0457 -158.303 0.159214 -16.3187 -24.389 -64.7155 29.0868 -149.556 22.6199 -3.79339 -98.2962 0.420957 0.000576259 0.35866 -1.22812 5.29741 38.1677 -138.782 -1.95853 77.7749 14.0809 0.919075 93.4232 0.58676 0.000330695 0.0646655 -49.8921 13.342 96.2404 -1.37129 30.8108 -15.8045 -5.30246 -6.64853 -0.235943 4.35507 -10.0314 3.45541 -46.6196 -13.1867 77.8289 2.59715 24.963 -4.58974 -1.99586 2.29331 0.270249 0.358841 -7.84342 6.06846 
17.6312 95.9674 2.63666 66.2529 -22.0495 -8.15494 -70.1915 0 88.8779 76.3393 69.8644 5.70113 3.27051 17.7537 7.13828 -126.211 40.1588 151.148 174.056 84.4092 -149.084 0.245576 -15.824 -24.1083 -65.0401 29.3246 -149.166 22.7464 -3.84469 -98.3596 0.420957 0.000576259 0.35866 -1.37578 5.745 38.7434 -138.712 -2.19315 78.3029 14.357 1.08495 93.9823 0.58676 0.000330695 0.0646655 -49.3632 13.5519 97.1899 -1.18433 30.0622 -15.3776 -5.36709 -6.73594 -0.242785 4.44458 -9.94055 1.97778 -45.78 -12.6748 78.6389 2.77566 23.1258 -4.95713 -3.70073 2.63169 0.507828 0.175501 -7.36365 7.02333 
17.2682 95.8972 2.43958 65.333 -22.8835 -8.83499 -70.1915 0 88.8779 76.8494 70.1589 4.82121 3.43998 18.154 6.55553 -125.535 39.4514 151.768 165.957 83.3292 -140.174 0.239585 -15.8553 -24.142 -65.1527 29.6914 -148.256 22.4532 -3.90113 -98.6188 0.420957 0.000576259 0.35866 -1.42414 5.94382 38.6939 -138.618 -2.94498 78.2845 14.3391 1.17774 94.3459 0.58676 0.000330695 0.0646655 -48.7651 13.6734 97.5478 -1.19351 29.9659 -14.7262 -5.41759 -7.55178 -0.342865 3.94301 -8.94335 2.02316 -45.2617 -12.1086 79.3159 2.72366 21.5218 -6.36762 -4.40969 2.58217 0.619185 -0.256032 -6.63257 9.76103 
